<svg width="40" height="40" viewBox="0 0 40 40" fill="none" xmlns="http://www.w3.org/2000/svg">
<rect width="40" height="40" rx="8" fill="#F0E4FE"/>
<path d="M16.9922 25.4084V16.9417C16.9922 16.6084 17.0922 16.2834 17.2755 16.0084L19.5505 12.625C19.9089 12.0834 20.8005 11.7 21.5589 11.9834C22.3755 12.2584 22.9172 13.175 22.7422 13.9917L22.3089 16.7167C22.2755 16.9667 22.3422 17.1917 22.4839 17.3667C22.6255 17.525 22.8339 17.625 23.0589 17.625H26.4839C27.1422 17.625 27.7089 17.8917 28.0422 18.3584C28.3589 18.8084 28.4172 19.3917 28.2089 19.9834L26.1589 26.225C25.9005 27.2584 24.7755 28.1 23.6589 28.1H20.4089C19.8505 28.1 19.0672 27.9084 18.7089 27.55L17.6422 26.725C17.2339 26.4167 16.9922 25.925 16.9922 25.4084Z" fill="#9848FE"/>
<path d="M14.341 15.3167H13.4827C12.191 15.3167 11.666 15.8167 11.666 17.05V25.4333C11.666 26.6667 12.191 27.1667 13.4827 27.1667H14.341C15.6327 27.1667 16.1577 26.6667 16.1577 25.4333V17.05C16.1577 15.8167 15.6327 15.3167 14.341 15.3167Z" fill="#9848FE"/>
</svg>
