<svg width="40" height="40" viewBox="0 0 40 40" fill="none" xmlns="http://www.w3.org/2000/svg">
<rect width="40" height="40" rx="8" fill="#E3F7FC"/>
<path d="M20.0007 19.6083C17.7007 19.6083 15.834 21.4749 15.834 23.7749C15.834 24.3916 15.9673 24.9749 16.2173 25.4916C16.284 25.6416 16.359 25.7833 16.4423 25.9166C17.159 27.1249 18.484 27.9416 20.0007 27.9416C21.5173 27.9416 22.8423 27.1249 23.559 25.9166C23.6423 25.7833 23.7173 25.6416 23.784 25.4916C24.034 24.9749 24.1673 24.3916 24.1673 23.7749C24.1673 21.4749 22.3007 19.6083 20.0007 19.6083ZM21.7257 23.4166L19.9507 25.0583C19.834 25.1666 19.6757 25.2249 19.5257 25.2249C19.3673 25.2249 19.209 25.1666 19.084 25.0416L18.259 24.2166C18.0173 23.9749 18.0173 23.5749 18.259 23.3333C18.5007 23.0916 18.9007 23.0916 19.1423 23.3333L19.5423 23.7333L20.8757 22.4999C21.134 22.2666 21.5257 22.2833 21.759 22.5333C21.9923 22.7833 21.9757 23.1749 21.7257 23.4166Z" fill="#158FAD"/>
<path d="M26.8338 24.225C26.5338 24.4916 26.2088 24.7166 25.8588 24.9C25.5588 25.05 25.2588 24.7583 25.3088 24.425C25.3421 24.1833 25.3588 23.9333 25.3588 23.675C25.3588 20.6916 22.9254 18.2583 19.9421 18.2583C16.9588 18.2583 14.5254 20.6916 14.5254 23.675C14.5254 24.0583 14.5671 24.425 14.6421 24.7833C14.7004 25.075 14.4754 25.3666 14.1838 25.2916C10.8921 24.4916 10.8754 19.425 14.5588 19.1666H14.6004C11.9254 11.725 23.2088 8.74998 24.5004 16.5666C28.1088 17.025 29.5671 21.8333 26.8338 24.225Z" fill="#158FAD"/>
</svg>
