<svg width="40" height="40" viewBox="0 0 40 40" fill="none" xmlns="http://www.w3.org/2000/svg">
<rect width="40" height="40" rx="8" fill="#F3FFD9"/>
<path d="M27.7076 25.3917L26.3326 25.7167C26.0242 25.7917 25.7826 26.025 25.7159 26.3333L25.4242 27.5583C25.2659 28.225 24.4159 28.4333 23.9742 27.9083L21.4826 25.0417C21.2826 24.8083 21.3909 24.4417 21.6909 24.3667C23.1659 24.0083 24.4909 23.1833 25.4659 22.0083C25.6242 21.8167 25.9076 21.7917 26.0826 21.9667L27.9326 23.8167C28.5659 24.45 28.3409 25.2417 27.7076 25.3917Z" fill="#A6CD4E"/>
<path d="M12.2506 25.3917L13.6256 25.7167C13.934 25.7917 14.1756 26.025 14.2423 26.3333L14.534 27.5583C14.6923 28.225 15.5423 28.4333 15.984 27.9083L18.4756 25.0417C18.6756 24.8083 18.5673 24.4417 18.2673 24.3667C16.7923 24.0083 15.4673 23.1833 14.4923 22.0083C14.334 21.8167 14.0506 21.7917 13.8756 21.9667L12.0256 23.8167C11.3923 24.45 11.6173 25.2417 12.2506 25.3917Z" fill="#A6CD4E"/>
<path d="M19.9993 11.6666C16.7743 11.6666 14.166 14.275 14.166 17.5C14.166 18.7083 14.5243 19.8166 15.141 20.7416C16.041 22.075 17.466 23.0166 19.1243 23.2583C19.4077 23.3083 19.6993 23.3333 19.9993 23.3333C20.2993 23.3333 20.591 23.3083 20.8743 23.2583C22.5327 23.0166 23.9577 22.075 24.8577 20.7416C25.4743 19.8166 25.8327 18.7083 25.8327 17.5C25.8327 14.275 23.2243 11.6666 19.9993 11.6666ZM22.5493 17.3166L21.8577 18.0083C21.741 18.125 21.6743 18.35 21.716 18.5166L21.916 19.375C22.0743 20.05 21.716 20.3166 21.116 19.9583L20.2827 19.4666C20.1327 19.375 19.8827 19.375 19.7327 19.4666L18.8993 19.9583C18.2993 20.3083 17.941 20.05 18.0993 19.375L18.2993 18.5166C18.3327 18.3583 18.2743 18.125 18.1577 18.0083L17.4493 17.3166C17.041 16.9083 17.1743 16.5 17.741 16.4083L18.6327 16.2583C18.7827 16.2333 18.9577 16.1 19.0243 15.9666L19.516 14.9833C19.7827 14.45 20.216 14.45 20.4827 14.9833L20.9743 15.9666C21.041 16.1 21.216 16.2333 21.3743 16.2583L22.266 16.4083C22.8243 16.5 22.9577 16.9083 22.5493 17.3166Z" fill="#A6CD4E"/>
</svg>
