<svg width="1440" height="300" viewBox="0 0 1440 300" fill="none" xmlns="http://www.w3.org/2000/svg">
<rect width="1440" height="300" fill="#FFECDB"/>
<path d="M795.334 98C795.334 82.3311 782.663 69.6561 767 69.6561V69.3439C782.663 69.3439 795.334 56.6689 795.334 41H795.666C795.666 56.6689 808.337 69.3439 824 69.3439V69.6561C808.337 69.6561 795.666 82.3311 795.666 98H795.334Z" fill="#F7DEE9"/>
<path d="M205.098 139.463C204.113 139.987 201.435 141.808 200.45 142.397C195.863 145.139 191.292 147.889 186.799 150.784C186.344 151.078 180.955 154.344 180.601 154.597C182.665 156.843 185.135 158.779 187.314 160.919C187.617 161.217 190.61 164.289 190.521 164.33C183.758 167.463 176.806 170.353 170.217 173.839C169.744 174.089 164.283 177.303 163.895 177.289C167.213 178.565 170.496 179.956 173.866 181.093C174.375 181.265 176.545 182.353 177.103 181.931C170.601 184.943 163.619 186.439 156.654 188.051C154.294 188.597 151.9 188.963 149.54 189.495C148.651 189.696 147.767 189.984 146.901 190.266C146.788 190.303 145.985 190.592 145.986 190.593C148.175 192.893 151.643 195.395 154.32 197.098C152.267 198.527 148.758 199.02 146.373 199.828C146.057 199.934 145.719 199.927 145.762 200.104C145.891 200.639 150.629 202.986 151.29 203.303" stroke="#FF7373" stroke-width="3" stroke-miterlimit="1.5" stroke-linecap="round" stroke-linejoin="round"/>
</svg>
