<svg width="40" height="40" viewBox="0 0 40 40" fill="none" xmlns="http://www.w3.org/2000/svg">
<rect width="40" height="40" rx="8" fill="#F7DEE9"/>
<path d="M23.9592 12.9666V11.6666C23.9592 11.325 23.6758 11.0416 23.3342 11.0416C22.9925 11.0416 22.7092 11.325 22.7092 11.6666V12.9166H17.2925V11.6666C17.2925 11.325 17.0092 11.0416 16.6675 11.0416C16.3258 11.0416 16.0425 11.325 16.0425 11.6666V12.9666C13.7925 13.175 12.7008 14.5166 12.5342 16.5083C12.5175 16.75 12.7175 16.95 12.9508 16.95H27.0508C27.2925 16.95 27.4925 16.7416 27.4675 16.5083C27.3008 14.5166 26.2092 13.175 23.9592 12.9666Z" fill="#FC62A8"/>
<path d="M25.8333 22.5C23.9917 22.5 22.5 23.9917 22.5 25.8333C22.5 26.4583 22.675 27.05 22.9833 27.55C23.5583 28.5167 24.6167 29.1667 25.8333 29.1667C27.05 29.1667 28.1083 28.5167 28.6833 27.55C28.9917 27.05 29.1667 26.4583 29.1667 25.8333C29.1667 23.9917 27.675 22.5 25.8333 22.5ZM27.5583 25.475L25.7833 27.1167C25.6667 27.225 25.5083 27.2833 25.3583 27.2833C25.2 27.2833 25.0417 27.225 24.9167 27.1L24.0917 26.275C23.85 26.0333 23.85 25.6333 24.0917 25.3917C24.3333 25.15 24.7333 25.15 24.975 25.3917L25.375 25.7917L26.7083 24.5583C26.9583 24.325 27.3583 24.3417 27.5917 24.5917C27.825 24.8417 27.8083 25.2333 27.5583 25.475Z" fill="#FC62A8"/>
<path d="M26.6667 18.2H13.3333C12.875 18.2 12.5 18.575 12.5 19.0333V24.1666C12.5 26.6666 13.75 28.3333 16.6667 28.3333H20.775C21.35 28.3333 21.75 27.775 21.5667 27.2333C21.4 26.75 21.2583 26.2166 21.2583 25.8333C21.2583 23.3083 23.3167 21.25 25.8417 21.25C26.0833 21.25 26.325 21.2666 26.5583 21.3083C27.0583 21.3833 27.5083 20.9916 27.5083 20.4916V19.0416C27.5 18.575 27.125 18.2 26.6667 18.2ZM17.675 25.175C17.5167 25.325 17.3 25.4166 17.0833 25.4166C16.8667 25.4166 16.65 25.325 16.4917 25.175C16.3417 25.0166 16.25 24.8 16.25 24.5833C16.25 24.3666 16.3417 24.15 16.4917 23.9916C16.575 23.9166 16.6583 23.8583 16.7667 23.8166C17.075 23.6833 17.4417 23.7583 17.675 23.9916C17.825 24.15 17.9167 24.3666 17.9167 24.5833C17.9167 24.8 17.825 25.0166 17.675 25.175ZM17.675 22.2583C17.6333 22.2916 17.5917 22.325 17.55 22.3583C17.5 22.3916 17.45 22.4166 17.4 22.4333C17.35 22.4583 17.3 22.475 17.25 22.4833C17.1917 22.4916 17.1333 22.5 17.0833 22.5C16.8667 22.5 16.65 22.4083 16.4917 22.2583C16.3417 22.1 16.25 21.8833 16.25 21.6666C16.25 21.45 16.3417 21.2333 16.4917 21.075C16.6833 20.8833 16.975 20.7916 17.25 20.85C17.3 20.8583 17.35 20.875 17.4 20.9C17.45 20.9166 17.5 20.9416 17.55 20.975C17.5917 21.0083 17.6333 21.0416 17.675 21.075C17.825 21.2333 17.9167 21.45 17.9167 21.6666C17.9167 21.8833 17.825 22.1 17.675 22.2583ZM20.5917 22.2583C20.4333 22.4083 20.2167 22.5 20 22.5C19.7833 22.5 19.5667 22.4083 19.4083 22.2583C19.2583 22.1 19.1667 21.8833 19.1667 21.6666C19.1667 21.45 19.2583 21.2333 19.4083 21.075C19.725 20.7666 20.2833 20.7666 20.5917 21.075C20.7417 21.2333 20.8333 21.45 20.8333 21.6666C20.8333 21.8833 20.7417 22.1 20.5917 22.2583Z" fill="#FC62A8"/>
</svg>
